<mxfile host="app.diagrams.net" agent="Mozilla/5.0 (Windows NT 10.0; Win64; x64) AppleWebKit/537.36 (KHTML, like Gecko) Chrome/137.0.0.0 Safari/537.36" version="27.1.5">
  <diagram name="第 1 页" id="lonSiITPs4C6ffdEqrCA">
    <mxGraphModel dx="974" dy="526" grid="1" gridSize="10" guides="1" tooltips="1" connect="1" arrows="1" fold="1" page="1" pageScale="1" pageWidth="827" pageHeight="1169" math="0" shadow="0">
      <root>
        <mxCell id="0" />
        <mxCell id="1" parent="0" />
        <mxCell id="mYwyg0G2E5H3gfKfkVRK-89" value="" style="shape=flexArrow;endArrow=classic;startArrow=classic;html=1;rounded=1;shadow=1;sketch=1;curveFitting=1;jiggle=2;flowAnimation=0;endSize=4;startSize=4;" edge="1" parent="1">
          <mxGeometry width="100" height="100" relative="1" as="geometry">
            <mxPoint x="390" y="280" as="sourcePoint" />
            <mxPoint x="389.66" y="208.75" as="targetPoint" />
          </mxGeometry>
        </mxCell>
        <mxCell id="mYwyg0G2E5H3gfKfkVRK-2" value="" style="rounded=0;whiteSpace=wrap;html=1;fillColor=#eeeeee;strokeColor=#36393d;" vertex="1" parent="1">
          <mxGeometry x="420" y="400" width="200" height="153" as="geometry" />
        </mxCell>
        <mxCell id="mYwyg0G2E5H3gfKfkVRK-23" value="" style="endArrow=none;dashed=1;html=1;dashPattern=1 3;strokeWidth=2;rounded=0;" edge="1" parent="1">
          <mxGeometry width="50" height="50" relative="1" as="geometry">
            <mxPoint x="160" y="560" as="sourcePoint" />
            <mxPoint x="630" y="560" as="targetPoint" />
          </mxGeometry>
        </mxCell>
        <mxCell id="mYwyg0G2E5H3gfKfkVRK-25" value="Toolkits" style="rounded=1;whiteSpace=wrap;html=1;" vertex="1" parent="1">
          <mxGeometry x="429" y="516.5" width="60" height="30" as="geometry" />
        </mxCell>
        <mxCell id="mYwyg0G2E5H3gfKfkVRK-32" value="LinBrainAgent-Runtime" style="text;html=1;align=center;verticalAlign=middle;whiteSpace=wrap;rounded=0;" vertex="1" parent="1">
          <mxGeometry x="470" y="410" width="120" height="17" as="geometry" />
        </mxCell>
        <mxCell id="mYwyg0G2E5H3gfKfkVRK-33" value="" style="endArrow=classic;html=1;rounded=0;strokeColor=#FF0000;" edge="1" parent="1">
          <mxGeometry width="50" height="50" relative="1" as="geometry">
            <mxPoint x="330" y="534" as="sourcePoint" />
            <mxPoint x="422" y="533.66" as="targetPoint" />
          </mxGeometry>
        </mxCell>
        <mxCell id="mYwyg0G2E5H3gfKfkVRK-35" value="LLM" style="rounded=1;whiteSpace=wrap;html=1;" vertex="1" parent="1">
          <mxGeometry x="559" y="516.5" width="60" height="30" as="geometry" />
        </mxCell>
        <mxCell id="mYwyg0G2E5H3gfKfkVRK-37" value="infra" style="text;html=1;align=center;verticalAlign=middle;whiteSpace=wrap;rounded=1;fillColor=#f9f7ed;strokeColor=#36393d;" vertex="1" parent="1">
          <mxGeometry x="90" y="416.5" width="50" height="213.5" as="geometry" />
        </mxCell>
        <mxCell id="mYwyg0G2E5H3gfKfkVRK-38" value="service" style="text;html=1;align=center;verticalAlign=middle;whiteSpace=wrap;rounded=1;fillColor=#f9f7ed;strokeColor=#36393d;" vertex="1" parent="1">
          <mxGeometry x="90" y="280" width="50" height="110" as="geometry" />
        </mxCell>
        <mxCell id="mYwyg0G2E5H3gfKfkVRK-48" value="" style="group" vertex="1" connectable="0" parent="1">
          <mxGeometry x="160" y="570" width="460" height="63.5" as="geometry" />
        </mxCell>
        <mxCell id="mYwyg0G2E5H3gfKfkVRK-44" value="" style="rounded=0;whiteSpace=wrap;html=1;fillColor=#eeeeee;strokeColor=#36393d;" vertex="1" parent="mYwyg0G2E5H3gfKfkVRK-48">
          <mxGeometry width="460" height="63.5" as="geometry" />
        </mxCell>
        <mxCell id="mYwyg0G2E5H3gfKfkVRK-39" value="用户数据" style="shape=datastore;whiteSpace=wrap;html=1;" vertex="1" parent="mYwyg0G2E5H3gfKfkVRK-48">
          <mxGeometry x="97.87234042553192" y="10.25" width="68.51063829787233" height="43" as="geometry" />
        </mxCell>
        <mxCell id="mYwyg0G2E5H3gfKfkVRK-41" value="应用数据" style="shape=datastore;whiteSpace=wrap;html=1;" vertex="1" parent="mYwyg0G2E5H3gfKfkVRK-48">
          <mxGeometry x="371.9148936170213" y="10.25" width="68.51063829787233" height="43" as="geometry" />
        </mxCell>
        <mxCell id="mYwyg0G2E5H3gfKfkVRK-45" value="运维管理" style="rounded=1;whiteSpace=wrap;html=1;" vertex="1" parent="mYwyg0G2E5H3gfKfkVRK-48">
          <mxGeometry x="219.23404255319147" y="10.25" width="78.29787234042553" height="40" as="geometry" />
        </mxCell>
        <mxCell id="mYwyg0G2E5H3gfKfkVRK-50" value="存储和设备运维" style="text;html=1;align=center;verticalAlign=middle;whiteSpace=wrap;rounded=0;" vertex="1" parent="mYwyg0G2E5H3gfKfkVRK-48">
          <mxGeometry x="19.574468085106382" y="15.25" width="58.723404255319146" height="30" as="geometry" />
        </mxCell>
        <mxCell id="mYwyg0G2E5H3gfKfkVRK-59" value="" style="group;fillColor=#eeeeee;strokeColor=#36393d;" vertex="1" connectable="0" parent="1">
          <mxGeometry x="169" y="433.5" width="160" height="113" as="geometry" />
        </mxCell>
        <mxCell id="mYwyg0G2E5H3gfKfkVRK-31" value="" style="group" vertex="1" connectable="0" parent="mYwyg0G2E5H3gfKfkVRK-59">
          <mxGeometry width="160" height="113" as="geometry" />
        </mxCell>
        <mxCell id="mYwyg0G2E5H3gfKfkVRK-30" value="" style="group;fillColor=#eeeeee;strokeColor=#36393d;container=0;" vertex="1" connectable="0" parent="mYwyg0G2E5H3gfKfkVRK-31">
          <mxGeometry width="160" height="113" as="geometry" />
        </mxCell>
        <mxCell id="mYwyg0G2E5H3gfKfkVRK-12" value="deepdata" style="whiteSpace=wrap;html=1;" vertex="1" parent="mYwyg0G2E5H3gfKfkVRK-31">
          <mxGeometry x="6.880000000000001" y="79.10000000000001" width="68.12" height="28.763636363636365" as="geometry" />
        </mxCell>
        <mxCell id="mYwyg0G2E5H3gfKfkVRK-36" value="N8nWorkflow" style="rounded=1;whiteSpace=wrap;html=1;" vertex="1" parent="mYwyg0G2E5H3gfKfkVRK-31">
          <mxGeometry x="6.8799999999999955" y="38.009090909090915" width="70" height="30.81818181818182" as="geometry" />
        </mxCell>
        <mxCell id="mYwyg0G2E5H3gfKfkVRK-29" value="&lt;b&gt;LinBrainTools&lt;/b&gt;" style="text;html=1;align=center;verticalAlign=middle;whiteSpace=wrap;rounded=0;" vertex="1" parent="mYwyg0G2E5H3gfKfkVRK-31">
          <mxGeometry x="6" y="7.190909090909091" width="71.88" height="23.62727272727273" as="geometry" />
        </mxCell>
        <mxCell id="mYwyg0G2E5H3gfKfkVRK-6" value="Manager" style="whiteSpace=wrap;html=1;" vertex="1" parent="mYwyg0G2E5H3gfKfkVRK-59">
          <mxGeometry x="90" y="9.5" width="60" height="40" as="geometry" />
        </mxCell>
        <mxCell id="mYwyg0G2E5H3gfKfkVRK-21" style="edgeStyle=orthogonalEdgeStyle;rounded=0;orthogonalLoop=1;jettySize=auto;html=1;entryX=0.5;entryY=1;entryDx=0;entryDy=0;" edge="1" parent="mYwyg0G2E5H3gfKfkVRK-59" source="mYwyg0G2E5H3gfKfkVRK-7" target="mYwyg0G2E5H3gfKfkVRK-6">
          <mxGeometry relative="1" as="geometry" />
        </mxCell>
        <mxCell id="mYwyg0G2E5H3gfKfkVRK-7" value="ragflow" style="whiteSpace=wrap;html=1;" vertex="1" parent="mYwyg0G2E5H3gfKfkVRK-59">
          <mxGeometry x="90" y="70.5" width="60" height="40" as="geometry" />
        </mxCell>
        <mxCell id="mYwyg0G2E5H3gfKfkVRK-60" value="" style="endArrow=classic;html=1;rounded=0;strokeColor=#00CC00;entryX=0.138;entryY=0.975;entryDx=0;entryDy=0;entryPerimeter=0;startArrow=classic;startFill=1;endFill=1;" edge="1" parent="1" target="mYwyg0G2E5H3gfKfkVRK-8">
          <mxGeometry width="50" height="50" relative="1" as="geometry">
            <mxPoint x="238" y="430" as="sourcePoint" />
            <mxPoint x="237.66" y="384" as="targetPoint" />
          </mxGeometry>
        </mxCell>
        <mxCell id="mYwyg0G2E5H3gfKfkVRK-63" value="UI-interface" style="rounded=1;whiteSpace=wrap;html=1;" vertex="1" parent="1">
          <mxGeometry x="429" y="433.5" width="60" height="30" as="geometry" />
        </mxCell>
        <mxCell id="mYwyg0G2E5H3gfKfkVRK-64" value="Adapter" style="rounded=1;whiteSpace=wrap;html=1;" vertex="1" parent="1">
          <mxGeometry x="429" y="475" width="60" height="30" as="geometry" />
        </mxCell>
        <mxCell id="mYwyg0G2E5H3gfKfkVRK-65" value="MCP" style="rounded=1;whiteSpace=wrap;html=1;" vertex="1" parent="1">
          <mxGeometry x="494" y="433.5" width="60" height="30" as="geometry" />
        </mxCell>
        <mxCell id="mYwyg0G2E5H3gfKfkVRK-66" value="Eval" style="rounded=1;whiteSpace=wrap;html=1;" vertex="1" parent="1">
          <mxGeometry x="559" y="433.5" width="60" height="30" as="geometry" />
        </mxCell>
        <mxCell id="mYwyg0G2E5H3gfKfkVRK-67" value="Rag" style="rounded=1;whiteSpace=wrap;html=1;" vertex="1" parent="1">
          <mxGeometry x="559" y="475" width="60" height="30" as="geometry" />
        </mxCell>
        <mxCell id="mYwyg0G2E5H3gfKfkVRK-68" value="Agent" style="rounded=1;whiteSpace=wrap;html=1;" vertex="1" parent="1">
          <mxGeometry x="496" y="475" width="60" height="30" as="geometry" />
        </mxCell>
        <mxCell id="mYwyg0G2E5H3gfKfkVRK-69" value="Tasks" style="rounded=1;whiteSpace=wrap;html=1;" vertex="1" parent="1">
          <mxGeometry x="496" y="516.5" width="60" height="30" as="geometry" />
        </mxCell>
        <mxCell id="mYwyg0G2E5H3gfKfkVRK-72" value="messages" style="text;html=1;align=center;verticalAlign=middle;whiteSpace=wrap;rounded=0;" vertex="1" parent="1">
          <mxGeometry x="180" y="386.5" width="60" height="30" as="geometry" />
        </mxCell>
        <mxCell id="mYwyg0G2E5H3gfKfkVRK-73" value="messages" style="text;html=1;align=center;verticalAlign=middle;whiteSpace=wrap;rounded=0;" vertex="1" parent="1">
          <mxGeometry x="320" y="390" width="60" height="23.5" as="geometry" />
        </mxCell>
        <mxCell id="mYwyg0G2E5H3gfKfkVRK-74" value="build" style="text;html=1;align=center;verticalAlign=middle;whiteSpace=wrap;rounded=0;" vertex="1" parent="1">
          <mxGeometry x="355" y="520" width="45" height="13.25" as="geometry" />
        </mxCell>
        <mxCell id="mYwyg0G2E5H3gfKfkVRK-75" value="platform" style="text;html=1;align=center;verticalAlign=middle;whiteSpace=wrap;rounded=1;fillColor=#f9f7ed;strokeColor=#36393d;" vertex="1" parent="1">
          <mxGeometry x="90" y="151.25" width="50" height="110" as="geometry" />
        </mxCell>
        <mxCell id="mYwyg0G2E5H3gfKfkVRK-76" value="" style="rounded=0;whiteSpace=wrap;html=1;fillColor=#eeeeee;strokeColor=#36393d;" vertex="1" parent="1">
          <mxGeometry x="185" y="148.75" width="400" height="65" as="geometry" />
        </mxCell>
        <mxCell id="mYwyg0G2E5H3gfKfkVRK-77" value="LinBrainWorkPlatform" style="text;html=1;align=center;verticalAlign=middle;whiteSpace=wrap;rounded=0;" vertex="1" parent="1">
          <mxGeometry x="320" y="148.75" width="120" height="30" as="geometry" />
        </mxCell>
        <mxCell id="mYwyg0G2E5H3gfKfkVRK-79" value="" style="shape=mxgraph.rack.cisco.cisco_1905_serial_integrated_services_router;html=1;labelPosition=right;align=left;spacingLeft=15;dashed=0;shadow=0;fillColor=#ffffff;" vertex="1" parent="1">
          <mxGeometry x="304.5" y="238.75" width="161" height="15" as="geometry" />
        </mxCell>
        <mxCell id="mYwyg0G2E5H3gfKfkVRK-80" value="API-Gateway" style="text;html=1;align=center;verticalAlign=middle;whiteSpace=wrap;rounded=0;" vertex="1" parent="1">
          <mxGeometry x="476.5" y="231.25" width="90" height="30" as="geometry" />
        </mxCell>
        <mxCell id="mYwyg0G2E5H3gfKfkVRK-81" value="Yes工作台" style="rounded=1;whiteSpace=wrap;html=1;" vertex="1" parent="1">
          <mxGeometry x="195" y="178.75" width="88" height="30" as="geometry" />
        </mxCell>
        <mxCell id="mYwyg0G2E5H3gfKfkVRK-82" value="合作伙伴生态业务平台" style="rounded=1;whiteSpace=wrap;html=1;" vertex="1" parent="1">
          <mxGeometry x="295" y="178.75" width="90" height="30" as="geometry" />
        </mxCell>
        <mxCell id="mYwyg0G2E5H3gfKfkVRK-85" value="设备管理中心" style="rounded=1;whiteSpace=wrap;html=1;" vertex="1" parent="1">
          <mxGeometry x="394" y="178.75" width="90" height="30" as="geometry" />
        </mxCell>
        <mxCell id="mYwyg0G2E5H3gfKfkVRK-86" value="开发者中心" style="rounded=1;whiteSpace=wrap;html=1;" vertex="1" parent="1">
          <mxGeometry x="494" y="178.75" width="88" height="30" as="geometry" />
        </mxCell>
        <mxCell id="mYwyg0G2E5H3gfKfkVRK-88" value="" style="group" vertex="1" connectable="0" parent="1">
          <mxGeometry x="180" y="280" width="420" height="100" as="geometry" />
        </mxCell>
        <mxCell id="mYwyg0G2E5H3gfKfkVRK-8" value="" style="rounded=0;whiteSpace=wrap;html=1;fillColor=#eeeeee;strokeColor=#36393d;" vertex="1" parent="mYwyg0G2E5H3gfKfkVRK-88">
          <mxGeometry width="419.99999999999994" height="100" as="geometry" />
        </mxCell>
        <mxCell id="mYwyg0G2E5H3gfKfkVRK-19" value="应用工作室" style="rounded=1;whiteSpace=wrap;html=1;" vertex="1" parent="mYwyg0G2E5H3gfKfkVRK-88">
          <mxGeometry x="18.900000000000002" y="64.61538461538461" width="84" height="30.76923076923077" as="geometry" />
        </mxCell>
        <mxCell id="mYwyg0G2E5H3gfKfkVRK-51" value="LinBrainWorkspace" style="text;html=1;align=center;verticalAlign=middle;whiteSpace=wrap;rounded=0;" vertex="1" parent="mYwyg0G2E5H3gfKfkVRK-88">
          <mxGeometry x="152.25" width="125.99999999999999" height="23.076923076923077" as="geometry" />
        </mxCell>
        <mxCell id="mYwyg0G2E5H3gfKfkVRK-52" value="配置中心" style="rounded=1;whiteSpace=wrap;html=1;" vertex="1" parent="mYwyg0G2E5H3gfKfkVRK-88">
          <mxGeometry x="324.44999999999993" y="64.61538461538461" width="85.04999999999998" height="27.69230769230769" as="geometry" />
        </mxCell>
        <mxCell id="mYwyg0G2E5H3gfKfkVRK-53" value="灵思中心" style="rounded=1;whiteSpace=wrap;html=1;" vertex="1" parent="mYwyg0G2E5H3gfKfkVRK-88">
          <mxGeometry x="125.99999999999999" y="23.076923076923077" width="84" height="30.76923076923077" as="geometry" />
        </mxCell>
        <mxCell id="mYwyg0G2E5H3gfKfkVRK-54" value="数据资产" style="rounded=1;whiteSpace=wrap;html=1;" vertex="1" parent="mYwyg0G2E5H3gfKfkVRK-88">
          <mxGeometry x="125.99999999999999" y="64.61538461538461" width="84" height="30.76923076923077" as="geometry" />
        </mxCell>
        <mxCell id="mYwyg0G2E5H3gfKfkVRK-55" value="数据看板" style="rounded=1;whiteSpace=wrap;html=1;" vertex="1" parent="mYwyg0G2E5H3gfKfkVRK-88">
          <mxGeometry x="18.900000000000002" y="23.076923076923077" width="84" height="30.76923076923077" as="geometry" />
        </mxCell>
        <mxCell id="mYwyg0G2E5H3gfKfkVRK-56" value="自动报告" style="rounded=1;whiteSpace=wrap;html=1;" vertex="1" parent="mYwyg0G2E5H3gfKfkVRK-88">
          <mxGeometry x="224.70000000000002" y="23.076923076923077" width="84" height="30.76923076923077" as="geometry" />
        </mxCell>
        <mxCell id="mYwyg0G2E5H3gfKfkVRK-57" value="知识库" style="rounded=1;whiteSpace=wrap;html=1;" vertex="1" parent="mYwyg0G2E5H3gfKfkVRK-88">
          <mxGeometry x="224.70000000000002" y="64.61538461538461" width="84" height="30.76923076923077" as="geometry" />
        </mxCell>
        <mxCell id="mYwyg0G2E5H3gfKfkVRK-58" value="通知中心" style="rounded=1;whiteSpace=wrap;html=1;" vertex="1" parent="mYwyg0G2E5H3gfKfkVRK-88">
          <mxGeometry x="324.44999999999993" y="23.076923076923077" width="84" height="30.76923076923077" as="geometry" />
        </mxCell>
        <mxCell id="mYwyg0G2E5H3gfKfkVRK-91" value="" style="endArrow=none;html=1;rounded=1;shadow=0;strokeColor=#FF0000;align=center;verticalAlign=middle;fontFamily=Helvetica;fontSize=11;fontColor=default;labelBackgroundColor=default;flowAnimation=0;" edge="1" parent="1">
          <mxGeometry width="50" height="50" relative="1" as="geometry">
            <mxPoint x="380" y="124.58" as="sourcePoint" />
            <mxPoint x="440" y="124.58" as="targetPoint" />
          </mxGeometry>
        </mxCell>
        <mxCell id="mYwyg0G2E5H3gfKfkVRK-92" value="" style="endArrow=none;html=1;rounded=1;shadow=0;strokeColor=#33FF33;align=center;verticalAlign=middle;fontFamily=Helvetica;fontSize=11;fontColor=default;labelBackgroundColor=default;flowAnimation=0;" edge="1" parent="1">
          <mxGeometry width="50" height="50" relative="1" as="geometry">
            <mxPoint x="149" y="124.58000000000001" as="sourcePoint" />
            <mxPoint x="209" y="124.58000000000001" as="targetPoint" />
          </mxGeometry>
        </mxCell>
        <mxCell id="mYwyg0G2E5H3gfKfkVRK-93" value="现用应用接入方案" style="text;html=1;align=center;verticalAlign=middle;whiteSpace=wrap;rounded=0;fontFamily=Helvetica;fontSize=11;fontColor=default;labelBackgroundColor=default;" vertex="1" parent="1">
          <mxGeometry x="209" y="110" width="101" height="30" as="geometry" />
        </mxCell>
        <mxCell id="mYwyg0G2E5H3gfKfkVRK-94" value="规划接入方案" style="text;html=1;align=center;verticalAlign=middle;whiteSpace=wrap;rounded=0;fontFamily=Helvetica;fontSize=11;fontColor=default;labelBackgroundColor=default;" vertex="1" parent="1">
          <mxGeometry x="465.5" y="110" width="101" height="30" as="geometry" />
        </mxCell>
        <mxCell id="mYwyg0G2E5H3gfKfkVRK-71" style="edgeStyle=orthogonalEdgeStyle;rounded=0;orthogonalLoop=1;jettySize=auto;html=1;entryX=0.5;entryY=0;entryDx=0;entryDy=0;strokeColor=#FF0000;startArrow=classic;startFill=1;" edge="1" parent="1" source="mYwyg0G2E5H3gfKfkVRK-52" target="mYwyg0G2E5H3gfKfkVRK-32">
          <mxGeometry relative="1" as="geometry" />
        </mxCell>
        <mxCell id="mYwyg0G2E5H3gfKfkVRK-95" value="" style="endArrow=classic;html=1;rounded=0;strokeColor=#FF0000;" edge="1" parent="1">
          <mxGeometry width="50" height="50" relative="1" as="geometry">
            <mxPoint x="334" y="490.34000000000003" as="sourcePoint" />
            <mxPoint x="426" y="490" as="targetPoint" />
          </mxGeometry>
        </mxCell>
        <mxCell id="mYwyg0G2E5H3gfKfkVRK-96" value="register" style="text;html=1;align=center;verticalAlign=middle;whiteSpace=wrap;rounded=0;" vertex="1" parent="1">
          <mxGeometry x="349" y="475" width="45" height="13.25" as="geometry" />
        </mxCell>
        <mxCell id="mYwyg0G2E5H3gfKfkVRK-62" style="edgeStyle=orthogonalEdgeStyle;rounded=0;orthogonalLoop=1;jettySize=auto;html=1;strokeColor=#FF0000;startArrow=classic;startFill=1;exitX=0.001;exitY=0.327;exitDx=0;exitDy=0;exitPerimeter=0;" edge="1" parent="1" source="mYwyg0G2E5H3gfKfkVRK-2" target="mYwyg0G2E5H3gfKfkVRK-19">
          <mxGeometry relative="1" as="geometry">
            <mxPoint x="460" y="410" as="sourcePoint" />
            <Array as="points">
              <mxPoint x="400" y="450" />
              <mxPoint x="400" y="390" />
              <mxPoint x="258" y="390" />
            </Array>
          </mxGeometry>
        </mxCell>
      </root>
    </mxGraphModel>
  </diagram>
</mxfile>
